<?xml version="1.0" encoding="UTF-8" standalone="no"?>
<svg
   xmlns:dc="http://purl.org/dc/elements/1.1/"
   xmlns:cc="http://creativecommons.org/ns#"
   xmlns:rdf="http://www.w3.org/1999/02/22-rdf-syntax-ns#"
   xmlns:svg="http://www.w3.org/2000/svg"
   xmlns="http://www.w3.org/2000/svg"
   style="enable-background:new 0 0 144 144;"
   viewBox="19 19 106 106"
   height="144px"
   width="144px"
   y="0px"
   x="0px"
   id="Layer_1"
   version="1.1"><path
     id="path3"
     d="M 123.62,70.716 119.22,67.996 C 119.19,67.568 119.14,67.141 119.1,66.716 L 122.87,63.194 C 123.26,62.836 123.43,62.306 123.33,61.793 123.22,61.278 122.86,60.854 122.37,60.671 L 117.55,58.866 C 117.42,58.448 117.3,58.033 117.17,57.62 L 120.18,53.438 C 120.49,53.013 120.55,52.46 120.35,51.975 120.15,51.492 119.71,51.146 119.19,51.061 L 114.1,50.233 C 113.91,49.847 113.7,49.467 113.49,49.09 L 115.63,44.395 C 115.85,43.917 115.81,43.361 115.51,42.927 115.22,42.491 114.73,42.236 114.2,42.256 L 109.04,42.436 C 108.77,42.102 108.5,41.771 108.22,41.446 L 109.41,36.414 C 109.53,35.903 109.38,35.368 109.01,34.997 108.64,34.627 108.1,34.474 107.59,34.594 L 102.56,35.78 C 102.23,35.504 101.9,35.231 101.57,34.964 L 101.75,29.798 C 101.77,29.275 101.51,28.778 101.08,28.488 100.64,28.196 100.09,28.152 99.61,28.369 L 94.916,30.509 C 94.537,30.301 94.157,30.095 93.773,29.896 L 92.943,24.805 C 92.859,24.289 92.513,23.851 92.029,23.651 91.546,23.45 90.992,23.515 90.567,23.821 L 86.382,26.832 C 85.97,26.701 85.556,26.575 85.138,26.455 L 83.333,21.627 C 83.15,21.135 82.726,20.774 82.211,20.672 81.697,20.571 81.168,20.742 80.811,21.124 L 77.289,24.903 C 76.864,24.856 76.436,24.813 76.009,24.778 L 73.289,20.383 C 73.014,19.938 72.527,19.667 72.003,19.667 71.479,19.667 70.992,19.938 70.718,20.383 L 67.998,24.778 C 67.57,24.813 67.142,24.856 66.717,24.903 L 63.194,21.124 C 62.837,20.742 62.307,20.571 61.794,20.672 61.279,20.775 60.855,21.135 60.672,21.627 L 58.867,26.455 C 58.449,26.575 58.035,26.702 57.622,26.832 L 53.438,23.821 C 53.013,23.514 52.459,23.449 51.975,23.651 51.492,23.851 51.145,24.289 51.061,24.805 L 50.231,29.896 C 49.847,30.095 49.467,30.3 49.088,30.509 L 44.394,28.369 C 43.917,28.151 43.361,28.196 42.927,28.488 42.491,28.778 42.236,29.275 42.256,29.798 L 42.436,34.964 C 42.102,35.231 41.771,35.504 41.444,35.78 L 36.413,34.594 C 35.902,34.475 35.366,34.627 34.996,34.997 34.624,35.368 34.473,35.903 34.593,36.414 L 35.778,41.446 C 35.503,41.772 35.231,42.102 34.964,42.436 L 29.798,42.256 C 29.277,42.241 28.779,42.491 28.488,42.927 28.196,43.361 28.152,43.917 28.369,44.395 L 30.509,49.09 C 30.301,49.467 30.095,49.847 29.896,50.233 L 24.806,51.061 C 24.289,51.145 23.853,51.491 23.652,51.975 23.452,52.46 23.517,53.013 23.822,53.438 L 26.833,57.62 C 26.702,58.033 26.575,58.448 26.455,58.866 L 21.627,60.671 C 21.137,60.854 20.776,61.278 20.674,61.793 20.572,62.307 20.743,62.836 21.126,63.194 L 24.903,66.716 C 24.856,67.141 24.814,67.569 24.778,67.996 L 20.384,70.716 C 19.939,70.991 19.668,71.477 19.668,72.002 19.668,72.527 19.939,73.013 20.384,73.287 L 24.778,76.007 C 24.814,76.435 24.856,76.862 24.903,77.287 L 21.126,80.81 C 20.743,81.167 20.572,81.697 20.674,82.21 20.776,82.725 21.137,83.148 21.627,83.332 L 26.455,85.137 C 26.575,85.555 26.702,85.97 26.833,86.383 L 23.822,90.566 C 23.516,90.992 23.451,91.545 23.652,92.028 23.853,92.513 24.29,92.859 24.807,92.942 L 29.896,93.77 C 30.095,94.156 30.299,94.536 30.509,94.915 L 28.369,99.608 C 28.151,100.08 28.196,100.64 28.488,101.08 28.78,101.51 29.277,101.77 29.798,101.75 L 34.962,101.57 C 35.231,101.9 35.502,102.23 35.778,102.56 L 34.593,107.59 C 34.473,108.1 34.624,108.63 34.996,109 35.365,109.38 35.902,109.53 36.413,109.41 L 41.444,108.22 C 41.771,108.5 42.102,108.77 42.436,109.04 L 42.256,114.2 C 42.236,114.73 42.491,115.22 42.927,115.51 43.361,115.8 43.917,115.85 44.394,115.63 L 49.088,113.49 C 49.466,113.7 49.846,113.91 50.231,114.1 L 51.061,119.19 C 51.145,119.71 51.491,120.15 51.975,120.35 52.458,120.55 53.013,120.48 53.438,120.18 L 57.62,117.17 C 58.033,117.3 58.448,117.42 58.866,117.54 L 60.671,122.37 C 60.854,122.86 61.278,123.22 61.793,123.32 62.307,123.43 62.836,123.26 63.193,122.87 L 66.716,119.09 C 67.141,119.14 67.569,119.18 67.997,119.22 L 70.717,123.62 C 70.991,124.06 71.478,124.33 72.002,124.33 72.526,124.33 73.013,124.06 73.288,123.62 L 76.008,119.22 C 76.436,119.18 76.863,119.14 77.288,119.09 L 80.81,122.87 C 81.167,123.26 81.697,123.43 82.21,123.32 82.725,123.22 83.149,122.86 83.332,122.37 L 85.137,117.54 C 85.555,117.42 85.97,117.3 86.383,117.17 L 90.566,120.18 C 90.991,120.48 91.545,120.55 92.028,120.35 92.512,120.15 92.858,119.71 92.942,119.19 L 93.772,114.1 C 94.156,113.91 94.536,113.7 94.915,113.49 L 99.609,115.63 C 100.09,115.85 100.64,115.8 101.08,115.51 101.51,115.22 101.77,114.73 101.75,114.2 L 101.57,109.04 C 101.9,108.77 102.23,108.5 102.56,108.22 L 107.59,109.41 C 108.1,109.53 108.64,109.38 109,109 109.38,108.63 109.53,108.1 109.41,107.59 L 108.22,102.56 C 108.5,102.23 108.77,101.9 109.04,101.57 L 114.2,101.75 C 114.72,101.77 115.22,101.51 115.51,101.08 115.8,100.64 115.85,100.08 115.63,99.608 L 113.49,94.915 C 113.7,94.536 113.91,94.156 114.1,93.77 L 119.19,92.942 C 119.71,92.859 120.15,92.513 120.35,92.028 120.55,91.545 120.48,90.992 120.18,90.566 L 117.17,86.383 C 117.3,85.97 117.42,85.555 117.54,85.137 L 122.37,83.332 C 122.86,83.148 123.22,82.725 123.32,82.21 123.43,81.696 123.26,81.167 122.87,80.81 L 119.1,77.287 C 119.14,76.862 119.18,76.434 119.22,76.007 L 123.62,73.287 C 124.06,73.013 124.33,72.526 124.33,72.002 124.33,71.478 124.06,70.991 123.62,70.716 Z M 94.208,107.17 C 92.53,106.81 91.463,105.15 91.823,103.47 92.182,101.79 93.835,100.72 95.512,101.08 97.19,101.44 98.259,103.1 97.899,104.78 97.539,106.46 95.885,107.53 94.208,107.17 Z M 64.903,34.055 69.689,39.076 C 70.771,40.209 72.563,40.251 73.695,39.168 L 79.05,34.046 C 90.271,36.135 99.771,43.12 105.25,52.703 L 101.58,60.983 C 100.95,62.416 101.59,64.092 103.02,64.727 L 110.08,67.862 C 111.49,80.621 105.88,91.917 99.29,98.482 L 92.715,97.069 C 91.184,96.741 89.678,97.715 89.35,99.249 L 87.79,106.53 C 82.976,108.71 77.63,109.93 72,109.93 66.241,109.93 60.779,108.65 55.879,106.38 L 54.32,99.096 C 53.992,97.564 52.486,96.588 50.956,96.917 L 44.529,98.297 C 37.763,91.181 32.753,81.02 33.954,67.553 L 40.649,64.578 C 42.079,63.943 42.725,62.267 42.09,60.834 L 38.61,52.96 C 44.643,42.306 54.679,36.008 64.903,34.055 Z M 49.463,107.01 C 47.785,107.38 46.133,106.31 45.772,104.63 45.413,102.94 46.48,101.29 48.158,100.93 49.836,100.57 51.489,101.64 51.849,103.32 52.208,105 51.14,106.65 49.463,107.01 Z M 37.6,58.91 C 38.296,60.481 37.588,62.322 36.019,63.017 34.45,63.714 32.614,63.005 31.918,61.433 31.222,59.861 31.93,58.023 33.499,57.326 35.069,56.63 36.904,57.338 37.6,58.91 Z M 69.691,29.784 C 70.931,28.596 72.898,28.643 74.085,29.885 75.27,31.13 75.225,33.099 73.982,34.286 72.742,35.474 70.775,35.428 69.588,34.184 68.404,32.941 68.449,30.972 69.691,29.784 Z M 106.07,59.061 C 106.77,57.49 108.6,56.781 110.17,57.478 111.74,58.174 112.45,60.014 111.75,61.585 111.06,63.157 109.22,63.866 107.65,63.169 106.08,62.473 105.38,60.634 106.07,59.061 Z"/></svg>